<?xml version="1.0" encoding="UTF-8" standalone="no"?>
<!-- Created with Inkscape (http://www.inkscape.org/) -->

<svg
   xmlns:dc="http://purl.org/dc/elements/1.1/"
   xmlns:cc="http://creativecommons.org/ns#"
   xmlns:rdf="http://www.w3.org/1999/02/22-rdf-syntax-ns#"
   xmlns:svg="http://www.w3.org/2000/svg"
   xmlns="http://www.w3.org/2000/svg"
   xmlns:sodipodi="http://sodipodi.sourceforge.net/DTD/sodipodi-0.dtd"
   xmlns:inkscape="http://www.inkscape.org/namespaces/inkscape"
   width="744.09448819"
   height="1052.3622047"
   id="svg2"
   version="1.1"
   inkscape:version="0.48.3.1 r9886"
   inkscape:export-filename="/home/russa/Desktop/KeyRunner/pumpkin.png"
   inkscape:export-xdpi="79.266052"
   inkscape:export-ydpi="79.266052"
   sodipodi:docname="New document 1">
  <defs
     id="defs4" />
  <sodipodi:namedview
     id="base"
     pagecolor="#ffffff"
     bordercolor="#666666"
     borderopacity="1.0"
     inkscape:pageopacity="0.0"
     inkscape:pageshadow="2"
     inkscape:zoom="2"
     inkscape:cx="178.82156"
     inkscape:cy="685.3313"
     inkscape:document-units="px"
     inkscape:current-layer="layer1"
     showgrid="false"
     showguides="true"
     inkscape:guide-bbox="true"
     inkscape:window-width="1375"
     inkscape:window-height="876"
     inkscape:window-x="65"
     inkscape:window-y="24"
     inkscape:window-maximized="1" />
  <metadata
     id="metadata7">
    <rdf:RDF>
      <cc:Work
         rdf:about="">
        <dc:format>image/svg+xml</dc:format>
        <dc:type
           rdf:resource="http://purl.org/dc/dcmitype/StillImage" />
        <dc:title></dc:title>
      </cc:Work>
    </rdf:RDF>
  </metadata>
  <g
     inkscape:label="Layer 1"
     inkscape:groupmode="layer"
     id="layer1">
    <rect
       style="fill:none;fill-rule:evenodd;stroke:#000000;stroke-width:0;stroke-linecap:butt;stroke-linejoin:miter;stroke-opacity:1;stroke-miterlimit:4;stroke-dasharray:none"
       id="rect3869"
       width="96.222595"
       height="96.222595"
       x="195.8887"
       y="376.57233"
       inkscape:export-filename="/home/russa/Desktop/KeyRunner/pumpkin.png"
       inkscape:export-xdpi="23.361454"
       inkscape:export-ydpi="23.361454" />
    <g
       id="g3871"
       transform="matrix(2.1398729,0,0,3.4946635,-101.79532,-1000.6459)"
       inkscape:export-filename="/home/russa/Desktop/KeyRunner/pumpkin.png"
       inkscape:export-xdpi="23.361454"
       inkscape:export-ydpi="23.361454">
      <path
         sodipodi:nodetypes="sssss"
         inkscape:connector-curvature="0"
         id="path3786"
         d="m 173.33001,405.82552 c 0,2.85153 -5.59071,5.27213 -11.89296,5.27213 -6.30227,0 -10.92952,-2.4206 -10.92952,-5.27213 0,-2.85152 5.10898,-5.16313 11.41124,-5.16313 6.30226,0 11.41124,2.31161 11.41124,5.16313 z"
         style="fill:#000000;fill-opacity:1;fill-rule:evenodd;stroke:#000000;stroke-width:0.57740295;stroke-linecap:butt;stroke-linejoin:miter;stroke-miterlimit:4;stroke-opacity:1" />
      <path
         sodipodi:nodetypes="sssssssssssss"
         inkscape:connector-curvature="0"
         id="path3788"
         d="m 173.67064,404.36135 c -0.0603,1.50962 -1.83419,-0.7711 -4.78628,-1.44681 -1.02879,-0.23548 -1.98899,2.93904 -3.16973,2.64025 -1.63889,-0.41474 -0.9613,-2.96585 -3.96618,-2.96585 -2.0786,0 -1.76634,2.45037 -3.2077,2.65996 -1.37213,0.19953 -3.06157,-2.67129 -4.06596,-2.48346 -3.71766,0.69522 -4.70955,2.99061 -4.64853,1.2106 0.0605,-1.76312 1.86482,-2.10879 2.71752,-2.54605 0.95713,-0.4908 1.20214,-0.9568 5.96882,-0.92748 1.10143,0.007 2.51457,-3.76483 3.91712,-3.77027 1.40918,-0.005 2.48074,3.75215 3.57405,3.73715 3.482,-0.0478 4.43508,0.63253 5.50757,1.18188 0.99506,0.50969 2.23515,0.8101 2.1593,2.71008 z"
         style="fill:#d45500;fill-opacity:1;fill-rule:evenodd;stroke:#000000;stroke-width:0.57740295;stroke-linecap:butt;stroke-linejoin:miter;stroke-miterlimit:4;stroke-opacity:1" />
      <path
         sodipodi:nodetypes="ccc"
         inkscape:connector-curvature="0"
         id="path3799"
         d="m 156.80925,408.83094 4.89219,0.5536 4.30494,-0.5536"
         style="fill:#d45500;stroke:#d45500;stroke-width:0.64155889px;stroke-linecap:butt;stroke-linejoin:miter;stroke-opacity:1" />
      <path
         sodipodi:nodetypes="cccccccccccccc"
         inkscape:connector-curvature="0"
         id="rect3838"
         d="m 158.74607,410.67995 4.0947,-0.10898 0.0123,2.04131 10.45519,-1.04975 -8.70797,3.70729 1.85348,4.5646 -3.85393,-3.98874 -2.15725,-0.34967 -5.79119,3.90248 4.22867,-5.52503 -3.75893,0.23102 -5.84049,-2.33704 9.87036,0.49711 z"
         inkscape:transform-center-x="2.1677792"
         style="fill:#000000;fill-rule:evenodd;stroke:#000000;stroke-width:0.64155889px;stroke-linecap:butt;stroke-linejoin:miter;stroke-opacity:1" />
      <path
         sodipodi:nodetypes="cccccc"
         inkscape:connector-curvature="0"
         id="rect3845"
         d="m 160.65363,395.4225 4.33556,2.07065 0.96345,2.83353 -3.59942,-0.92455 -2.90391,1.03353 z"
         style="fill:#008000;fill-rule:evenodd;stroke:#000000;stroke-width:0.64155889px;stroke-linecap:butt;stroke-linejoin:miter;stroke-opacity:1" />
      <path
         sodipodi:nodetypes="cccccc"
         inkscape:connector-curvature="0"
         id="rect3848"
         d="m 155.53188,405.47875 1.95864,-0.19265 1.27738,0.84767 -1.98461,0.31812 -2.103,0.18279 z"
         style="fill:#000000;fill-rule:evenodd;stroke:#d45500;stroke-width:0.25662357;stroke-linecap:butt;stroke-linejoin:miter;stroke-miterlimit:4;stroke-opacity:1;stroke-dasharray:none" />
      <path
         inkscape:transform-center-y="-0.38530423"
         inkscape:transform-center-x="1.1070589"
         sodipodi:nodetypes="cccccc"
         inkscape:connector-curvature="0"
         id="rect3848-9"
         d="m 165.0183,405.21813 1.59683,0.54815 -0.5932,0.99024 -1.8244,-0.47553 -1.6741,-0.6042 z"
         style="fill:#000000;fill-rule:evenodd;stroke:#d45500;stroke-width:0.25662357;stroke-linecap:butt;stroke-linejoin:miter;stroke-miterlimit:4;stroke-opacity:1;stroke-dasharray:none" />
    </g>
  </g>
</svg>
